<svg xmlns="http://www.w3.org/2000/svg" width="1em" height="1em" viewBox="0 0 18 18">
    <path fill="currentColor" d="M16.95 18a15.006 15.006 0 0 1-6.175-1.363 18.489 18.489 0 0 1-5.55-3.862 18.465 18.465 0 0 1-3.862-5.55A15.027 15.027 0 0 1 0 1.05 1.025 1.025 0 0 1 1.05 0H5.1a.929.929 0 0 1 .625.238A.915.915 0 0 1 6.05.8l.65 3.5a1.764 1.764 0 0 1-.025.675 1.052 1.052 0 0 1-.275.475L3.975 7.9a12.094 12.094 0 0 0 1.187 1.787 17.583 17.583 0 0 0 1.513 1.663A17.641 17.641 0 0 0 8.3 12.788 15.672 15.672 0 0 0 10.1 14l2.35-2.35a1.4 1.4 0 0 1 .588-.338 1.6 1.6 0 0 1 .712-.062l3.45.7a1.156 1.156 0 0 1 .575.363.881.881 0 0 1 .225.587v4.05A1.025 1.025 0 0 1 16.95 18Z" />
</svg>